<svg width="52" height="52" viewBox="0 0 52 52" fill="none" xmlns="http://www.w3.org/2000/svg">
<path d="M37.5568 30.7283C34.1425 34.1425 34.1425 37.5568 30.7283 37.5568C27.314 37.5568 23.8998 34.1425 20.4855 30.7283C17.0713 27.314 13.657 23.8998 13.657 20.4855C13.657 17.0713 17.0713 17.0713 20.4855 13.657C23.8998 10.2428 13.657 0 10.2428 0C6.8285 0 0 10.2428 0 10.2428C0 17.0713 7.01629 30.916 13.657 37.5568C20.2977 44.1975 34.1425 51.2138 40.971 51.2138C40.971 51.2138 51.2138 44.3853 51.2138 40.971C51.2138 37.5568 40.971 27.314 37.5568 30.7283Z" fill="black"/>
</svg>
